<?xml version="1.0" encoding="utf-8"?>
<!-- Generator: Adobe Illustrator 26.0.2, SVG Export Plug-In . SVG Version: 6.00 Build 0)  -->
<svg version="1.1" id="Layer_1" xmlns="http://www.w3.org/2000/svg" xmlns:xlink="http://www.w3.org/1999/xlink" x="0px" y="0px"
	 viewBox="0 0 1000 1000" style="enable-background:new 0 0 1000 1000;" xml:space="preserve">
<g>
	<g>
		<g>
			<path d="M487,776.9h26.1h271.2c7.1,0,13.8-2.9,18.2-8.1c4-4.5,5.8-10.2,5-16c-6.5-50.7-25.2-97.2-52.6-136.9
				c-3.3-4.9-6.8-9.7-10.4-14.4c-4.2-5.3-8.6-10.4-13-15.5c-12.9-14.5-27-27.7-42.2-39.6c-5.2-4.1-10.6-7.9-16-11.6
				c-5.4-3.7-10.7-7.2-16.2-10.5c-4.2-2.4-8.5-4.7-12.8-7c-4.2,4.2-8.6,8.1-13.2,12c-3.8,3.2-7.9,6.1-11.9,9
				c-4,2.9-8.1,5.5-12.4,8.1c-2,1.2-4,2.5-6.1,3.7c-0.7,0.3-1.2,0.7-1.8,1.1c-29.3,16.2-63,25.4-98.8,25.4
				c-56.2,0-107.1-22.7-144.2-59.4c-86.7,46.1-150,132.2-163.3,235.4c-0.7,5.9,1.1,11.6,5,16.1c4.5,5.1,11.2,8.1,18.2,8.1h254.8
				L487,776.9L487,776.9z"/>
			<path d="M373.4,492.5c3.7,3.8,7.6,7.5,11.6,11c30.9,26.9,71,43.3,115.1,43.3c33.5,0,64.8-9.6,91.4-26c4.2-2.6,8.4-5.4,12.5-8.4
				c3.9-2.9,7.7-5.8,11.2-9c0.2-0.2,0.5-0.5,0.7-0.7c3.7-3.3,7.3-6.7,10.8-10.3c3.7-3.8,7.2-7.7,10.4-11.9
				c24.1-30.1,38.6-68.1,38.6-109.6c0-14.7-2-29-5.5-42.8c-1.3-5-2.7-9.9-4.4-14.8c-1.6-4.7-3.5-9.4-5.5-14
				c-27.4-61.3-88.9-104.1-160.3-104.1c-96.8,0-175.6,78.8-175.6,175.7c0,41.5,14.5,79.5,38.5,109.6
				C366.2,484.8,369.7,488.8,373.4,492.5z"/>
		</g>
	</g>
</g>
</svg>
