<?xml version="1.0" encoding="utf-8"?>
<!-- Generator: Adobe Illustrator 26.0.2, SVG Export Plug-In . SVG Version: 6.00 Build 0)  -->
<svg version="1.1" id="Layer_1" xmlns="http://www.w3.org/2000/svg" xmlns:xlink="http://www.w3.org/1999/xlink" x="0px" y="0px"
	 viewBox="0 0 1000 1000" style="enable-background:new 0 0 1000 1000;" xml:space="preserve">
<g>
	<g>
		<g>
			<path d="M767.8,570.1c-20.2,19.1-45,33.1-72.6,40.4c25.8,41,43.5,87.8,50,138.4c1.2,9.8-0.6,19.3-4.7,27.9h141.9
				c4.6,0,9-2.1,12.1-5.7c3-3.4,4.5-7.8,3.9-12.1C888,677.6,836.8,608,767.8,570.1z"/>
			<path d="M604.1,514.3c5.7,4.1,11.2,8.3,16.5,12.7c5.5,4.4,10.8,8.9,16,13.6c14.7,13.4,28.1,27.9,40.2,43.7
				c23-4.2,44-14,61.6-27.9c4.4-3.5,8.6-7.2,12.6-11.2c3.7-3.7,7.2-7.7,10.4-11.9c18.7-23.8,30-53.7,30-86.2
				c0-77-62.6-139.7-139.7-139.7c-16.2,0-31.7,2.9-46.1,8c5,17.8,7.9,36.5,7.9,55.9c0,46.2-15.5,88.7-41.3,123.1
				C583.2,500.3,593.9,506.9,604.1,514.3z"/>
			<path d="M395,776.9h26.1h271.2c7.1,0,13.8-2.9,18.2-8.1c4-4.5,5.8-10.2,5-16c-6.5-50.7-25.2-97.2-52.6-136.9
				c-3.3-4.9-6.8-9.7-10.4-14.4c-4.2-5.3-8.6-10.4-13-15.5c-12.9-14.5-27-27.7-42.2-39.6c-5.2-4.1-10.6-7.9-16-11.6
				c-5.4-3.7-10.7-7.2-16.2-10.5c-4.2-2.4-8.5-4.7-12.8-7c-4.2,4.2-8.6,8.1-13.2,12c-3.8,3.2-7.9,6.1-11.9,9
				c-4,2.9-8.1,5.5-12.4,8.1c-2,1.2-4,2.5-6.1,3.7c-0.7,0.3-1.2,0.7-1.8,1.1c-29.3,16.2-63,25.4-98.8,25.4
				c-56.2,0-107.1-22.7-144.2-59.4c-86.7,46.1-150,132.2-163.3,235.4c-0.7,5.9,1.1,11.6,5,16.1c4.5,5.1,11.2,8.1,18.2,8.1h254.8
				L395,776.9L395,776.9z"/>
			<path d="M281.4,492.5c3.7,3.8,7.6,7.5,11.6,11c30.9,26.9,71,43.3,115.1,43.3c33.5,0,64.8-9.6,91.4-26c4.2-2.6,8.4-5.4,12.5-8.4
				c3.9-2.9,7.7-5.8,11.2-9c0.2-0.2,0.5-0.5,0.7-0.7c3.7-3.3,7.3-6.7,10.8-10.3c3.7-3.8,7.2-7.7,10.4-11.9
				c24.1-30.1,38.6-68.1,38.6-109.6c0-14.7-2-29-5.5-42.8c-1.3-5-2.7-9.9-4.4-14.8c-1.6-4.7-3.5-9.4-5.5-14
				c-27.4-61.3-88.9-104.1-160.3-104.1c-96.8,0-175.6,78.8-175.6,175.7c0,41.5,14.5,79.5,38.5,109.6
				C274.3,484.8,277.8,488.8,281.4,492.5z"/>
		</g>
	</g>
</g>
</svg>
